<svg id="Layer_1" data-name="Layer 1" xmlns="http://www.w3.org/2000/svg" viewBox="0 0 512 512">
  <defs>
    <style>
      .cls-1{fill:#79d3d3}
    </style>
  </defs>
  <path class="cls-1" d="M382.7 104.65l17.92-31a6.4 6.4 0 00-2.34-8.74L368 47.38a6.39 6.39 0 00-8.74 2.34l-18.19 31.49a215.6 215.6 0 0141.63 23.44zM256 64a220.15 220.15 0 0138.4 3.37V25.6a12.81 12.81 0 00-12.8-12.8h-51.2a12.81 12.81 0 00-12.8 12.8v41.77A220.15 220.15 0 01256 64zM129.3 104.65a215.59 215.59 0 0141.63-23.44l-18.18-31.49a6.35 6.35 0 00-5.56-3.2 6.28 6.28 0 00-3.18.86l-30.29 17.48a6.4 6.4 0 00-2.34 8.74z"/>
  <path d="M256 499.2a217.6 217.6 0 01-153.87-371.47 217.6 217.6 0 01307.74 307.74A216.18 216.18 0 01256 499.2z" fill="#d9e4e8"/>
  <path d="M399.42 101.29L411.71 80a19.2 19.2 0 00-7-26.23l-30.32-17.48a19.19 19.19 0 00-26.23 7l-12.68 22a228.64 228.64 0 00-28.29-8.36V25.6A25.6 25.6 0 00281.6 0h-51.2a25.6 25.6 0 00-25.6 25.6v31.32a228.64 228.64 0 00-28.29 8.36l-12.68-22a19.19 19.19 0 00-26.23-7l-30.28 17.5a19.2 19.2 0 00-7 26.23l12.29 21.28a230 230 0 00-87 180.31C25.6 408.85 128.75 512 256 512s230.4-103.15 230.4-230.4a230 230 0 00-86.98-180.31zm-32.28-39.63l19.2 11.09-7.89 13.67q-9.37-5.89-19.32-10.88zM230.4 25.6h51.2v27a231 231 0 00-51.2 0zM125.66 72.75l19.2-11.09 8 13.87q-9.94 5-19.32 10.88zm275.16 353.67a204.08 204.08 0 1143.9-65.11 204.15 204.15 0 01-43.9 65.11zm-132-181v-79a12.8 12.8 0 10-25.6 0v79a38.4 38.4 0 1025.6 0z" fill="#141f38"/>
  <path d="M256 294.4a12.8 12.8 0 10-12.8-12.8 12.81 12.81 0 0012.8 12.8z" fill="#f4607f"/>
</svg>
